<?xml version="1.0" standalone="no"?>
<!DOCTYPE svg PUBLIC "-//W3C//DTD SVG 20010904//EN"
 "http://www.w3.org/TR/2001/REC-SVG-20010904/DTD/svg10.dtd">
<svg version="1.0" xmlns="http://www.w3.org/2000/svg"
 width="480.000000pt" height="480.000000pt" viewBox="0 0 480.000000 480.000000"
 preserveAspectRatio="xMidYMid meet">
<metadata>
Created by potrace 1.11, written by Peter Selinger 2001-2013
</metadata>
<g transform="translate(0.000000,480.000000) scale(0.100000,-0.100000)"
fill="#000000" stroke="none">
<path d="M1381 4349 c-53 -24 -152 -117 -203 -192 -94 -138 -139 -281 -153
-487 l-8 -100 -508 0 -509 0 0 -30 0 -30 509 0 510 0 5 -42 c3 -24 8 -72 10
-108 3 -36 14 -113 23 -173 l17 -107 -39 -40 -39 -40 -498 0 -498 0 0 -30 0
-30 467 0 468 0 -96 -97 c-131 -133 -205 -224 -264 -326 l-50 -86 -262 -1
-263 0 0 -30 0 -30 249 0 249 0 -24 -74 c-32 -103 -48 -234 -40 -343 l6 -93
-220 0 -220 0 0 -30 0 -30 231 0 231 0 6 -22 c3 -13 23 -57 44 -100 72 -143
222 -277 395 -353 l78 -34 -492 -1 -493 0 0 -30 0 -30 707 -2 708 -3 23 -130
c17 -97 24 -172 25 -295 2 -149 0 -169 -19 -211 -29 -61 -85 -116 -153 -148
-49 -23 -69 -26 -158 -26 -68 0 -106 4 -115 13 -9 9 -9 12 5 12 25 0 107 43
139 73 86 80 99 228 27 327 -41 56 -97 82 -191 88 -94 6 -147 -16 -207 -84
-49 -56 -71 -119 -71 -203 0 -186 173 -321 409 -321 200 0 347 84 401 227 41
111 42 310 1 549 -12 67 -21 124 -21 128 0 3 740 6 1645 6 l1645 0 0 30 0 30
-1017 0 -1018 0 62 41 c77 50 138 117 172 189 22 48 25 68 26 165 l0 110 888
3 887 2 0 30 0 30 -296 2 -297 3 51 33 c66 42 128 113 161 182 23 48 26 71 29
173 l4 117 174 0 174 0 0 30 0 30 -175 0 -175 0 0 255 0 255 175 0 175 0 0 30
0 30 -175 0 -175 0 0 255 0 255 175 0 175 0 0 30 0 30 -175 0 -175 0 0 125 c0
93 -3 125 -12 125 -7 0 -294 -56 -638 -125 l-625 -125 -771 0 -772 0 -5 183
c-7 261 -59 474 -136 568 -38 46 -59 51 -110 28z m78 -335 c30 -38 43 -98 43
-190 -1 -77 -19 -176 -44 -229 -11 -25 -11 -25 -160 -25 l-149 0 7 48 c26 177
123 350 226 401 54 26 52 26 77 -5z m-49 -517 c0 -19 -94 -153 -170 -244 l-65
-76 -7 34 c-5 19 -11 94 -15 167 l-6 132 132 0 c102 0 131 -3 131 -13z m1550
-242 l0 -255 -785 0 c-432 0 -785 2 -785 5 0 2 18 33 41 67 72 112 141 271
185 426 3 9 146 12 674 12 l670 0 0 -255z m1428 -2 l2 -253 -685 0 -685 0 0
120 c0 115 1 121 23 130 12 5 297 63 632 129 714 140 654 129 685 127 l25 -1
3 -252z m-1428 -568 l0 -255 -830 0 -830 0 -5 23 c-3 12 -18 96 -34 187 l-27
165 55 68 55 67 808 0 808 0 0 -255z m1428 -2 l2 -253 -685 0 -685 0 0 248 c0
137 3 252 7 255 3 4 311 6 682 5 l676 -3 3 -252z m-3222 -119 c13 -71 22 -129
20 -131 -2 -2 -75 -2 -162 -1 l-159 3 134 133 c73 73 135 131 138 128 3 -3 16
-62 29 -132z m-36 -197 c0 -1 -26 -21 -58 -45 -124 -90 -212 -264 -212 -417
l0 -45 -105 0 -105 0 0 49 c0 112 50 278 117 385 50 80 39 76 210 76 84 0 153
-1 153 -3z m1830 -252 l0 -255 -537 2 -537 3 -12 70 c-28 167 -119 311 -247
394 l-62 41 698 0 697 0 0 -255z m982 219 c-83 -47 -162 -127 -198 -200 -41
-83 -41 -172 -1 -232 l27 -42 -372 2 -373 3 -3 240 c-1 132 0 245 2 252 4 10
108 13 493 13 l488 0 -63 -36z m448 20 c0 -14 -3 -14 -15 -4 -8 7 -15 14 -15
16 0 2 7 4 15 4 8 0 15 -7 15 -16z m-2890 -253 c27 -10 66 -32 87 -49 40 -32
97 -119 109 -165 l6 -28 -153 3 -153 3 -18 100 c-9 55 -20 112 -22 128 -5 26
-5 27 44 27 27 0 72 -9 100 -19z m-231 -106 c12 -60 21 -116 21 -122 0 -10
-34 -13 -136 -13 l-136 0 7 28 c12 52 47 111 83 143 30 27 132 83 138 76 1 -1
12 -51 23 -112z m-393 -212 c39 -126 125 -213 242 -247 97 -28 113 11 29 73
-69 50 -104 92 -117 139 -5 20 -10 40 -10 45 0 4 64 7 143 7 l142 0 41 -216
c22 -120 36 -218 31 -221 -5 -3 -46 -8 -92 -10 -188 -12 -404 79 -518 219 -36
44 -88 147 -101 201 l-6 27 105 0 c92 0 106 -2 111 -17z m834 -15 c0 -53 -27
-162 -50 -208 -28 -55 -89 -120 -138 -148 l-40 -22 -11 52 c-14 72 -61 340
-61 350 0 4 68 8 150 8 l150 0 0 -32z m801 0 c-75 -43 -153 -125 -187 -194
-23 -47 -29 -72 -29 -126 0 -59 4 -72 32 -112 l33 -46 -433 0 -432 0 66 33
c84 43 137 86 192 156 71 90 127 219 127 293 l0 28 343 0 342 0 -54 -32z"/>
</g>
</svg>
