<svg xmlns="http://www.w3.org/2000/svg" width="100" height="100" viewBox="0 0 66.1 66.1" id="svg38" version="1.1">
  <metadata id="metadata42"/>
  <style id="style2">
    .a{fill:'current';stroke-linejoin:round;stroke-width:10;}
  </style>
  <defs id="defs6">
    <style type="text/css" id="style4">
        
   
    .str1 {stroke:#131516;stroke-width:3}
    .str0 {stroke:#131516;stroke-width:42}
    .fil0 {fill:none}
    .fil1 {fill:'current'}
   
  
    </style>
  </defs>
  <rect width="50.3" height="50.3" x="7.9" y="7.9" id="rect10" style="fill:none;opacity:0.5;stroke-linejoin:round;stroke-width:10"/>
  <rect width="50.3" height="2.6" x="7.9" y="55.6" ry="1.3" class="a" id="rect12"/>
  <rect width="50.3" height="2.6" x="7.9" y="7.9" ry="1.3" class="a" id="rect14"/>
  <rect width="1.3" height="66.1" x="-1.3" id="rect16" style="fill:'current;opacity:0.5;stroke-linejoin:round;stroke-width:10"/>
  <rect width="50.3" height="2.6" x="7.9" y="31.8" ry="1.3" class="a" id="rect18"/>
  <rect width="50.3" height="2.6" x="7.9" y="19.8" ry="1.3" class="a" id="rect20"/>
  <rect width="50.3" height="2.6" x="7.9" y="43.7" ry="1.3" class="a" id="rect22"/>
  <rect width="50.3" height="5.3" x="7.9" y="-35.7" ry="2.6" transform="rotate(90)" id="rect24" style="fill:'current';stroke-linejoin:round;stroke-width:20"/>
  <rect width="50.3" height="2.6" x="7.9" y="-39.7" ry="1.3" transform="rotate(90)" class="a" id="rect26"/>
  <rect width="50.3" height="2.6" x="7.9" y="-29.1" ry="1.3" transform="rotate(90)" class="a" id="rect28"/>
  <circle cx="44.3" cy="27.1" r="2" class="a" id="circle30"/>
  <circle cx="44.3" cy="39" r="2" class="a" id="circle32"/>
  <circle cx="21.8" cy="27.1" r="2" class="a" id="circle34"/>
  <circle cx="21.8" cy="39" r="2" class="a" id="circle36"/>
</svg>