<svg xmlns="http://www.w3.org/2000/svg" width="100" height="100" viewBox="0 0 66.1 66.1"><style>.a{fill:#060505;stroke-linejoin:round;stroke-width:10;}</style><defs><style type="text/css">  
   
    .str1 {stroke:#131516;stroke-width:3}
    .str0 {stroke:#131516;stroke-width:42}
    .fil0 {fill:none}
    .fil1 {fill:#131516}
   
  </style></defs><rect width="60.9" height="60.9" x="2.6" y="2.6" ry="5.3" style="fill:#fffffe;stroke-linejoin:round;stroke-width:10"/><rect width="50.3" height="50.3" x="7.9" y="7.9" style="fill:none;opacity:0.5;stroke-linejoin:round;stroke-width:10"/><rect width="50.3" height="2.6" x="7.9" y="55.6" ry="1.3" class="a"/><rect width="50.3" height="2.6" x="7.9" y="7.9" ry="1.3" class="a"/><rect width="1.3" height="66.1" x="-1.3" style="fill:#000200;opacity:0.5;stroke-linejoin:round;stroke-width:10"/><rect width="50.3" height="2.6" x="7.9" y="31.8" ry="1.3" class="a"/><rect width="50.3" height="2.6" x="7.9" y="19.8" ry="1.3" class="a"/><rect width="50.3" height="2.6" x="7.9" y="43.7" ry="1.3" class="a"/><rect width="50.3" height="5.3" x="7.9" y="-35.7" ry="2.6" transform="rotate(90)" style="fill:#060505;stroke-linejoin:round;stroke-width:20"/><rect width="50.3" height="2.6" x="7.9" y="-39.7" ry="1.3" transform="rotate(90)" class="a"/><rect width="50.3" height="2.6" x="7.9" y="-29.1" ry="1.3" transform="rotate(90)" class="a"/><circle cx="44.3" cy="27.1" r="2" class="a"/><circle cx="44.3" cy="39" r="2" class="a"/><circle cx="21.8" cy="27.1" r="2" class="a"/><circle cx="21.8" cy="39" r="2" class="a"/></svg>